# xmcd
#
# Track frame offsets:
#	180
#	17291
#	45186
#	79038
#
# Disc length: 1444 seconds
#
# Revision: 0
# Processed by: cddbd v1.5.2PL0 Copyright (c) Steve Scherf et al.
# Submitted via: EasyCDDAExtractor 16.0.6.1
#
DISCID=1805a204
DTITLE=Cocoon Iv - Chrysalis (Maxi-Cd)
DYEAR=1995
DGENRE=Dance
TTITLE0=Chrysalis (Radio Edit)
TTITLE1=Chrysalis (Metamorph-O-Mix)
TTITLE2=Chrysalis (Butterfly Mix)
TTITLE3=Chrysalis (Trance-O-Matic)Cocoon Iv
EXTD=
EXTT0=
EXTT1=
EXTT2=
EXTT3=
PLAYORDER=
